<svg width="3220" height="587" viewBox="0 0 3220 587" fill="none" xmlns="http://www.w3.org/2000/svg">
<path d="M379.766 471.75H198.125L147.734 578H0.46875L301.641 9.25H427.422L532.5 578H393.438L379.766 471.75ZM248.125 365.891H366.094L341.094 169.797L248.125 365.891ZM1045.78 115.109H880.156L800.078 578H666.094L746.562 115.109H583.672L602.422 9.25H1064.14L1045.78 115.109ZM1267.66 377.219H1193.44L1158.28 578H1024.69L1123.12 9.25L1323.91 9.64062C1388.23 9.64062 1437.71 24.7448 1472.34 54.9531C1507.24 84.901 1522.86 125.917 1519.22 178C1516.35 219.146 1504.51 253.26 1483.67 280.344C1462.84 307.167 1433.67 328.391 1396.17 344.016L1472.73 571.359V578H1330.16L1267.66 377.219ZM1211.41 271.359L1289.53 272.141C1310.89 272.141 1329.38 266.932 1345 256.516C1360.89 246.099 1372.21 231.906 1378.98 213.938C1385.76 195.708 1387.71 178.13 1384.84 161.203C1379.64 132.297 1361.15 117.062 1329.38 115.5L1238.75 115.109L1211.41 271.359ZM1677.42 578H1543.83L1642.66 9.25H1775.86L1677.42 578ZM2014.14 421.75L2188.36 9.25H2341.48L2066.48 578H1920.39L1825.08 9.25H1969.61L2014.14 421.75ZM2674.3 336.984H2465.31L2441.48 472.531H2688.75L2670.39 578H2289.53L2387.97 9.25H2769.61L2751.25 115.109H2503.59L2482.5 235.031H2691.88L2674.3 336.984ZM3040.31 424.094C3046.04 394.667 3030.16 371.88 2992.66 355.734L2928.59 329.172C2838.75 288.807 2796.04 233.859 2800.47 164.328C2802.29 132.557 2813.23 104.302 2833.28 79.5625C2853.33 54.5625 2881.07 35.1615 2916.48 21.3594C2951.9 7.55729 2990.57 0.916667 3032.5 1.4375C3088.75 2.47917 3133.93 18.8854 3168.05 50.6562C3202.42 82.4271 3219.35 125.005 3218.83 178.391H3086.02C3086.8 156.516 3082.11 139.068 3071.95 126.047C3062.06 112.766 3045.65 105.865 3022.73 105.344C3000.34 104.823 2980.55 110.031 2963.36 120.969C2946.17 131.906 2936.02 146.62 2932.89 165.109C2927.94 191.151 2947.21 212.505 2990.7 229.172C3034.45 245.839 3066.22 260.161 3086.02 272.141C3148.26 309.38 3177.42 359.641 3173.52 422.922C3171.43 455.734 3160.89 484.51 3141.88 509.25C3122.86 533.99 3096.43 553.13 3062.58 566.672C3028.98 580.214 2991.22 586.724 2949.3 586.203C2918.57 585.682 2890.05 580.865 2863.75 571.75C2837.45 562.635 2814.92 549.354 2796.17 531.906C2758.15 496.75 2739.92 450.526 2741.48 393.234L2875.47 393.625C2873.91 422.792 2879.51 444.927 2892.27 460.031C2905.03 474.875 2926.51 482.297 2956.72 482.297C2979.11 482.297 2997.73 477.219 3012.58 467.062C3027.68 456.646 3036.93 442.323 3040.31 424.094Z" fill="black"/>
</svg>
